<mxfile host="65bd71144e">
    <diagram id="Tq9PFSNh_DcIkw41yYVw" name="Page-1">
        <mxGraphModel dx="1730" dy="548" grid="1" gridSize="10" guides="1" tooltips="1" connect="1" arrows="1" fold="1" page="1" pageScale="1" pageWidth="827" pageHeight="1169" math="0" shadow="0">
            <root>
                <mxCell id="0"/>
                <mxCell id="1" parent="0"/>
                <mxCell id="3" value="" style="rounded=0;whiteSpace=wrap;html=1;" vertex="1" parent="1">
                    <mxGeometry y="60" width="820" height="530" as="geometry"/>
                </mxCell>
                <mxCell id="4" value="https://mths-icd2o-1-2023.github.io/ICD2O-Assignment-06-Gabriel-Zanardi/&amp;nbsp;" style="rounded=0;whiteSpace=wrap;html=1;" vertex="1" parent="1">
                    <mxGeometry y="60" width="820" height="60" as="geometry"/>
                </mxCell>
                <mxCell id="5" value="&lt;div style=&quot;color: white; font-family: Helvetica, Arial, sans-serif; text-align: start; font-size: 16px;&quot; class=&quot;page-content&quot;&gt;&lt;font style=&quot;font-size: 16px;&quot;&gt;Click the button to show the NASA picture of the day&lt;/font&gt;&lt;/div&gt;&lt;div style=&quot;font-size: 16px;&quot;&gt;&lt;br&gt;&lt;/div&gt;" style="text;html=1;strokeColor=none;fillColor=none;align=center;verticalAlign=middle;whiteSpace=wrap;rounded=0;" vertex="1" parent="1">
                    <mxGeometry x="-80" y="140" width="560" height="30" as="geometry"/>
                </mxCell>
                <mxCell id="6" value="Show Picture" style="rounded=1;whiteSpace=wrap;html=1;labelBackgroundColor=none;fontSize=16;" vertex="1" parent="1">
                    <mxGeometry x="20" y="170" width="120" height="20" as="geometry"/>
                </mxCell>
                <mxCell id="7" value="*Generated Image Here*" style="whiteSpace=wrap;html=1;aspect=fixed;labelBackgroundColor=none;fontSize=16;" vertex="1" parent="1">
                    <mxGeometry x="530" y="150" width="230" height="230" as="geometry"/>
                </mxCell>
            </root>
        </mxGraphModel>
    </diagram>
</mxfile>